# xmcd
#
# Track frame offsets:
#	150
#	11365
#	24786
#	37247
#	50298
#	67311
#	82135
#	93560
#	106598
#	117907
#	131256
#	143539
#	156611
#	173547
#	188303
#	199698
#	224273
#
# Disc length: 3002 seconds
#
# Revision: 1
# Processed by: cddbd v1.5.1PL2 Copyright (c) Steve Scherf et al.
# Submitted via: audiograbber 1.83.01
#
DISCID=dd0bb811
DTITLE=Patsy Cline - CLINE GH-1
DYEAR=1900
DGENRE=Country
TTITLE0=Blue Moon Of Kentucky
TTITLE1=I Fall to Pieces
TTITLE2=Sweet Dreams
TTITLE3=Crazy
TTITLE4=Faded Love
TTITLE5=She's Got You
TTITLE6=Leavin' On Your Mind
TTITLE7=Walking After Midnight
TTITLE8=Blue Moon Of Kentucky - Vocal
TTITLE9=I Fall to Pieces - Vocal
TTITLE10=Sweet Dreams - Vocal
TTITLE11=Crazy - Vocal
TTITLE12=Faded Love - Vocal
TTITLE13=She's Got You - Vocal
TTITLE14=Leavin' On Your Mind - Vocal
TTITLE15=Walking After Midnight - Vocal
TTITLE16=Data Track
EXTD=
EXTT0=
EXTT1=
EXTT2=
EXTT3=
EXTT4=
EXTT5=
EXTT6=
EXTT7=
EXTT8=
EXTT9=
EXTT10=
EXTT11=
EXTT12=
EXTT13=
EXTT14=
EXTT15=
EXTT16=
PLAYORDER=
